<svg width="198" height="47" viewBox="0 0 198 47" fill="none" xmlns="http://www.w3.org/2000/svg">
<g clip-path="url(#clip0_13201_1955)">
<path d="M16.4411 1.60911C19.2144 0.704347 22.1645 0.329201 25.0815 0.516774C29.3575 0.748482 33.5341 2.2601 37.0145 4.74269C37.3902 5.01853 37.799 5.2723 38.1194 5.62538C38.6719 6.2543 38.8929 7.14804 38.694 7.96453C38.4951 8.84723 37.799 9.59752 36.9372 9.86233C36.0975 10.1271 35.1362 9.9506 34.4622 9.38788C31.8656 7.39078 28.7056 6.13293 25.4461 5.82399C24.2528 5.69159 23.0374 5.69159 21.8441 5.82399C18.4078 6.16603 15.0821 7.54525 12.4082 9.74096C9.39176 12.2015 7.19299 15.6661 6.33116 19.4617C5.53562 22.9042 5.7787 26.5894 7.0604 29.8885C8.40839 33.3972 10.9165 36.4315 14.0766 38.4617C16.4411 39.9733 19.1702 40.9112 21.9546 41.176C23.0374 41.3084 24.1423 41.3084 25.2141 41.187C28.5841 40.9002 31.8435 39.6092 34.5174 37.5459C35.1914 37.0163 36.1527 36.8618 36.9703 37.1377C38.0973 37.5238 38.9039 38.7265 38.7603 39.9182C38.694 40.6133 38.3294 41.2753 37.7769 41.6946C35.6555 43.3496 33.2468 44.6185 30.6834 45.435C27.3797 46.4943 23.8219 46.7701 20.3856 46.2956C16.5737 45.766 12.9054 44.2434 9.83373 41.9263C6.85047 39.6975 4.41966 36.7294 2.81754 33.3641C1.24857 30.0651 0.486183 26.3798 0.618772 22.7276C0.740312 18.2369 2.23194 13.8014 4.86163 10.1492C7.6902 6.17707 11.7894 3.12073 16.4411 1.60911Z" fill="white" stroke="white" stroke-width="0.0340402"/>
<path opacity="0.4" d="M21.8441 5.824C23.0374 5.6916 24.2528 5.6916 25.4461 5.824C24.2418 5.7909 23.0485 5.7909 21.8441 5.824Z" fill="white" stroke="white" stroke-width="0.0340402"/>
<path d="M48.7707 7.87628C49.9198 7.53423 51.2678 8.07488 51.8203 9.15619C54.4721 14.331 55.6322 20.2451 55.1571 26.0378C54.8256 30.1644 53.6876 34.2358 51.7761 37.91C51.08 39.2231 49.2127 39.6423 48.0083 38.7817C46.8924 38.0645 46.5278 36.4646 47.1907 35.3061C50.8811 28.068 50.9142 19.0976 47.268 11.8374C46.9366 11.2416 46.7598 10.5354 46.9255 9.86235C47.1134 8.92448 47.8536 8.13005 48.7707 7.87628Z" fill="white" stroke="white" stroke-width="0.0340402"/>
<path d="M176.985 8.58243C177.106 8.09695 177.592 7.73284 178.112 7.7549C179.106 7.7549 180.1 7.74387 181.095 7.7549C181.669 7.73284 182.2 8.24039 182.2 8.81414C182.222 11.727 182.189 14.6399 182.211 17.5418C183.658 16.2398 185.537 15.4895 187.459 15.302C189.636 15.0813 191.934 15.4564 193.779 16.6812C196.089 18.1818 197.359 20.9071 197.569 23.5883C197.635 26.1702 197.591 28.7521 197.602 31.3339C197.591 33.2097 197.624 35.0964 197.58 36.9722C197.437 37.4466 196.95 37.7556 196.464 37.7335C195.503 37.7335 194.531 37.7445 193.569 37.7335C193.05 37.7556 192.564 37.3694 192.453 36.8729C192.464 33.5186 192.453 30.1644 192.453 26.8101C192.453 26.1371 192.475 25.464 192.409 24.791C192.277 23.1469 191.658 21.4036 190.266 20.3995C189.139 19.561 187.636 19.3734 186.277 19.6051C185.216 19.7927 184.222 20.3554 183.537 21.194C182.587 22.3635 182.222 23.8972 182.211 25.3757C182.2 29.1272 182.211 32.8897 182.2 36.6412C182.211 37.1929 181.747 37.6894 181.194 37.7225C180.421 37.7556 179.658 37.7225 178.885 37.7335C178.52 37.7335 178.167 37.7556 177.813 37.7004C177.404 37.6121 177.073 37.2701 176.985 36.8729C176.985 27.439 176.985 18.0163 176.985 8.58243Z" fill="white" stroke="white" stroke-width="0.0340402"/>
<path opacity="0.52" d="M176.918 9.03481C176.929 8.89137 176.952 8.7369 176.985 8.58243C176.985 18.0163 176.985 27.439 176.985 36.8729C176.885 36.3874 176.929 35.9019 176.929 35.4164C176.918 26.6225 176.941 17.8287 176.918 9.03481Z" fill="white" stroke="white" stroke-width="0.0340402"/>
<path d="M16.0875 10.9767C20.7723 8.15211 27.1034 8.22935 31.6557 11.3078C32.7827 12.1353 33.0147 13.9007 32.1418 14.993C31.3573 16.0633 29.7331 16.3833 28.6172 15.6661C26.8493 14.5406 24.7058 14.0552 22.6285 14.2979C20.5513 14.5186 18.5625 15.4785 17.104 16.9681C15.6455 18.4135 14.6953 20.3554 14.4633 22.3966C14.2533 24.0517 14.5296 25.7619 15.2146 27.2846C16.1206 29.2927 17.7669 30.9588 19.7779 31.8856C21.833 32.8566 24.2417 33.0111 26.4073 32.338C29.3022 31.4553 31.6999 29.061 32.5285 26.1591C30.4513 26.1702 28.3741 26.1591 26.2969 26.1591C25.3024 26.1591 24.3412 25.5412 23.9323 24.6475C23.4241 23.6214 23.6893 22.2863 24.5511 21.536C24.9931 21.1388 25.5787 20.874 26.1753 20.8519C29.3133 20.8298 32.4402 20.8409 35.5781 20.8409C36.6057 20.8078 37.6001 21.4477 38.0089 22.3856C38.3625 23.1138 38.252 23.9414 38.2078 24.7247C37.9316 28.1231 36.3957 31.4001 33.9649 33.8055C31.6336 36.1446 28.4846 37.6563 25.1919 37.9873C21.9546 38.3403 18.6067 37.557 15.8554 35.8026C13.0821 34.0482 10.9165 31.3229 9.85578 28.2114C8.77297 25.0668 8.82822 21.547 9.95522 18.4245C11.0601 15.3351 13.27 12.6649 16.0875 10.9767Z" fill="white" stroke="white" stroke-width="0.0340402"/>
<path d="M79.863 9.10101C82.1391 8.84723 84.4815 9.03481 86.6472 9.7851C89.2327 10.6788 91.5751 12.3008 93.2103 14.4965C93.5639 14.9047 93.7296 15.5116 93.4866 16.0191C93.1993 16.6812 92.4369 16.8908 91.8734 17.266C91.2325 17.5859 90.6138 18.2038 89.8293 18.0162C89.2216 17.939 88.9233 17.3542 88.5476 16.9349C87.1002 15.3351 85.0229 14.3641 82.8794 14.1434C81.1778 13.9779 79.421 14.1655 77.83 14.8275C75.9627 15.6109 74.4047 17.0563 73.4324 18.8217C72.4712 20.5761 72.1618 22.6283 72.3496 24.6034C72.4822 26.1702 73.0126 27.7149 73.9296 29.0058C75.1892 30.7823 77.0676 32.1173 79.189 32.6801C80.6917 33.0552 82.2938 33.1876 83.8186 32.8014C85.7522 32.338 87.5974 31.3781 88.9675 29.9106C89.9398 28.8734 90.6027 27.5494 90.879 26.1591C90.89 26.104 90.9121 25.9826 90.9232 25.9274C88.2272 25.9385 85.5312 25.9274 82.8463 25.9385C82.2607 25.8281 81.7524 25.3206 81.7193 24.7137C81.6861 24.162 81.7193 23.6103 81.7082 23.0587C81.7082 22.6614 81.664 22.2201 81.896 21.867C82.1612 21.4146 82.6805 21.1719 83.1888 21.205C86.8792 21.205 90.5696 21.205 94.26 21.205C95.2434 21.1719 96.1162 22.0767 96.0389 23.0587C95.9947 24.4489 96.0279 25.8723 95.6853 27.2294C95.2765 28.9617 94.5804 30.6278 93.586 32.1063C92.7573 33.3531 91.6414 34.3792 90.4149 35.2288C88.8128 36.3212 87.0228 37.1266 85.1445 37.5901C82.6253 38.23 79.9514 38.0755 77.4543 37.4025C74.018 36.4646 71.0237 34.1365 69.1564 31.1243C67.1455 27.9025 66.6483 23.8862 67.4217 20.212C68.1731 16.5929 70.5044 13.3931 73.565 11.3409C75.4323 10.094 77.62 9.34375 79.863 9.10101Z" fill="white" stroke="white" stroke-width="0.0340402"/>
<path d="M112.071 9.0679C114.082 8.88033 116.148 9.02377 118.082 9.63062C121.021 10.5354 123.706 12.4222 125.407 15.004C125.739 15.4895 125.584 16.2398 125.065 16.5377C124.336 16.9791 123.573 17.3984 122.833 17.8397C122.501 18.0273 122.159 18.27 121.761 18.2149C121.386 18.2038 121.087 17.939 120.888 17.6411C119.717 15.8978 117.806 14.7172 115.773 14.2869C114.115 13.9558 112.369 14.0331 110.745 14.4855C108.944 14.993 107.342 16.1074 106.226 17.5859C105.154 18.9651 104.547 20.6643 104.403 22.3966C104.215 24.3717 104.502 26.435 105.453 28.2004C106.37 29.9106 107.839 31.3229 109.618 32.0953C111.276 32.8235 113.132 33.0111 114.911 32.8345C117.065 32.6028 119.154 31.5656 120.524 29.8775C120.789 29.5575 120.966 29.1493 121.319 28.9176C121.673 28.6969 122.148 28.73 122.501 28.9507C123.341 29.4361 124.192 29.9106 125.032 30.3961C125.463 30.6278 125.684 31.1795 125.551 31.6539C125.418 32.018 125.153 32.3159 124.932 32.6249C122.358 36.0453 118.071 38.0424 113.806 37.9873C110.48 38.0424 107.088 37.0163 104.491 34.8978C102.978 33.6731 101.696 32.1615 100.779 30.4402C99.8176 28.6417 99.2983 26.6336 99.1768 24.5923C99.0332 22.3966 99.2983 20.1458 100.083 18.0714C101.232 15.0702 103.475 12.4994 106.259 10.8885C108.027 9.86233 110.038 9.26651 112.071 9.0679Z" fill="white" stroke="white" stroke-width="0.0340402"/>
<path d="M41.5888 12.4222C42.7269 12.1242 44.0196 12.709 44.55 13.7572C47.4227 19.8258 47.4227 27.1742 44.55 33.2428C44.1853 33.96 43.4561 34.4896 42.6495 34.622C41.7103 34.7875 40.7049 34.3903 40.1193 33.64C39.5116 32.8566 39.4011 31.7312 39.843 30.8485C41.9866 26.2033 41.9534 20.6312 39.7878 15.9971C39.1359 14.5737 40.064 12.7532 41.5888 12.4222Z" fill="white" stroke="white" stroke-width="0.0340402"/>
<path d="M136.523 15.0923C138.611 14.673 140.865 14.7944 142.788 15.7543C144.224 16.4605 145.439 17.6852 145.959 19.2189C146.025 18.2259 145.948 17.2218 145.992 16.2177C146.003 15.6771 146.522 15.2247 147.064 15.2247C148.102 15.2137 149.13 15.2137 150.168 15.2247C150.754 15.2137 151.273 15.7323 151.251 16.3281C151.251 22.8711 151.251 29.4141 151.251 35.9681C151.251 36.255 151.262 36.5529 151.229 36.8508C151.152 37.3583 150.666 37.7335 150.157 37.7335C149.307 37.7445 148.467 37.7224 147.616 37.7335C147.329 37.7335 147.041 37.7555 146.776 37.6893C146.345 37.568 146.014 37.1818 145.992 36.7404C145.959 36.0674 146.003 35.3943 145.97 34.7323C145.395 35.2399 144.865 35.7915 144.235 36.2329C142.666 37.4025 140.732 38.0866 138.777 38.0866C136.622 38.1086 134.468 37.4356 132.733 36.1557C131.042 34.9309 129.772 33.1766 129.02 31.2457C128.114 28.9396 127.927 26.3908 128.335 23.9634C128.722 21.7015 129.75 19.5168 131.374 17.8728C132.766 16.4605 134.589 15.4895 136.523 15.0923ZM138.71 19.583C137.13 19.8147 135.683 20.7305 134.788 22.0546C133.153 24.4268 133.086 27.7259 134.468 30.2306C135.219 31.6429 136.523 32.8014 138.092 33.2207C140.092 33.7944 142.379 33.2428 143.881 31.7973C145.196 30.5836 145.87 28.7962 145.959 27.0308C146.091 24.9895 145.539 22.7938 144.058 21.3153C142.699 19.903 140.633 19.2741 138.71 19.583Z" fill="white" stroke="white" stroke-width="0.0340402"/>
<path d="M162.676 14.9268C164.996 14.7172 167.449 15.0151 169.449 16.2729C171.239 17.3763 172.421 19.3293 172.675 21.4036C172.742 22.0105 172.211 22.6063 171.604 22.5842C170.642 22.5952 169.67 22.5842 168.72 22.5952C168.388 22.6063 168.035 22.5621 167.792 22.3304C167.449 22.0546 167.427 21.5912 167.25 21.216C166.919 20.4437 166.212 19.8809 165.416 19.6272C164.576 19.3624 163.681 19.3513 162.82 19.4617C162.112 19.561 161.383 19.7816 160.897 20.3333C160.367 20.9181 160.345 21.9112 160.864 22.507C161.405 23.1359 162.212 23.4448 162.974 23.7207C165.151 24.4489 167.449 24.8351 169.504 25.9054C170.698 26.5232 171.803 27.428 172.41 28.6417C173.372 30.5505 173.206 32.9559 171.99 34.7103C170.963 36.2329 169.294 37.1928 167.549 37.6673C165.416 38.241 163.118 38.23 160.996 37.6342C159.372 37.1708 157.836 36.3101 156.698 35.0633C155.803 34.0924 155.163 32.8676 154.953 31.5546C154.842 30.9367 155.384 30.3188 156.013 30.3188C157.085 30.3078 158.157 30.3188 159.218 30.3188C159.726 30.2968 160.201 30.6388 160.334 31.1243C160.499 31.687 160.831 32.2056 161.284 32.5807C162.201 33.3531 163.449 33.629 164.632 33.5517C165.549 33.5076 166.51 33.32 167.228 32.7132C167.847 32.1946 168.079 31.2236 167.637 30.5285C167.25 29.9437 166.565 29.6348 165.924 29.3699C164.068 28.6748 162.101 28.3548 160.245 27.6597C158.886 27.1632 157.538 26.4791 156.566 25.3757C155.152 23.7869 154.853 21.3926 155.593 19.4396C156.212 17.8287 157.571 16.6039 159.107 15.8867C160.223 15.3461 161.45 15.0482 162.676 14.9268Z" fill="white" stroke="white" stroke-width="0.0340402"/>
<path opacity="0.75" d="M197.569 23.5883C197.725 24.5813 197.614 25.5854 197.647 26.5894C197.647 29.6458 197.647 32.6911 197.647 35.7474C197.647 36.1557 197.691 36.5749 197.58 36.9722C197.625 35.0964 197.591 33.2097 197.602 31.3339C197.591 28.752 197.636 26.1701 197.569 23.5883Z" fill="white" stroke="white" stroke-width="0.0340402"/>
<path opacity="0.48" d="M192.409 24.791C192.476 25.464 192.454 26.1371 192.454 26.8101C192.454 30.1644 192.465 33.5186 192.454 36.8729C192.343 36.3212 192.409 35.7585 192.398 35.1957C192.398 31.7312 192.387 28.2666 192.409 24.791Z" fill="white" stroke="white" stroke-width="0.0340402"/>
<path opacity="0.27" d="M82.8462 25.9385C85.5311 25.9274 88.2271 25.9385 90.9231 25.9274C90.912 25.9826 90.8899 26.104 90.8789 26.1591C90.6579 26.0378 90.4038 25.9936 90.1607 25.9936C87.9177 26.0157 85.6637 25.9826 83.4207 26.0157C83.2219 26.0157 83.034 25.9716 82.8462 25.9385Z" fill="white" stroke="white" stroke-width="0.0340402"/>
<path opacity="0.46" d="M21.9546 41.176C23.0485 41.1981 24.1313 41.1981 25.2141 41.187C24.1423 41.3084 23.0374 41.3084 21.9546 41.176Z" fill="white" stroke="white" stroke-width="0.0340402"/>
</g>
<defs>
<clipPath id="clip0_13201_1955">
<rect width="198" height="47" fill="white"/>
</clipPath>
</defs>
</svg>
