<svg width="181" height="155" viewBox="0 0 181 155" fill="none" xmlns="http://www.w3.org/2000/svg">
<path d="M2.78125 140V108H15.4063C17.8333 108 19.901 108.464 21.6094 109.391C23.3177 110.307 24.6198 111.583 25.5156 113.219C26.4219 114.844 26.875 116.719 26.875 118.844C26.875 120.969 26.4167 122.844 25.5 124.469C24.5833 126.094 23.2552 127.359 21.5156 128.266C19.7865 129.172 17.6927 129.625 15.2344 129.625H7.1875V124.203H14.1406C15.4427 124.203 16.5156 123.979 17.3594 123.531C18.2135 123.073 18.849 122.443 19.2656 121.641C19.6927 120.828 19.9063 119.896 19.9063 118.844C19.9063 117.781 19.6927 116.854 19.2656 116.062C18.849 115.26 18.2135 114.641 17.3594 114.203C16.5052 113.755 15.4219 113.531 14.1094 113.531H9.54688V140H2.78125ZM41.6953 140.469C39.2266 140.469 37.1016 139.969 35.3203 138.969C33.5495 137.958 32.1849 136.531 31.2266 134.687C30.2682 132.833 29.7891 130.641 29.7891 128.109C29.7891 125.641 30.2682 123.474 31.2266 121.609C32.1849 119.745 33.5339 118.292 35.2734 117.25C37.0234 116.208 39.0755 115.688 41.4297 115.688C43.013 115.688 44.487 115.943 45.8516 116.453C47.2266 116.953 48.4245 117.708 49.4453 118.719C50.4766 119.729 51.2786 121 51.8516 122.531C52.4245 124.052 52.7109 125.833 52.7109 127.875V129.703H32.4453V125.578H46.4453C46.4453 124.62 46.237 123.771 45.8203 123.031C45.4036 122.292 44.8255 121.714 44.0859 121.297C43.3568 120.87 42.5078 120.656 41.5391 120.656C40.5286 120.656 39.6328 120.891 38.8516 121.359C38.0807 121.818 37.4766 122.437 37.0391 123.219C36.6016 123.99 36.3776 124.849 36.3672 125.797V129.719C36.3672 130.906 36.5859 131.932 37.0234 132.797C37.4714 133.661 38.1016 134.328 38.9141 134.797C39.7266 135.266 40.6901 135.5 41.8047 135.5C42.5443 135.5 43.2214 135.396 43.8359 135.188C44.4505 134.979 44.9766 134.667 45.4141 134.25C45.8516 133.833 46.1849 133.323 46.4141 132.719L52.5703 133.125C52.2578 134.604 51.6172 135.896 50.6484 137C49.6901 138.094 48.4505 138.948 46.9297 139.563C45.4193 140.167 43.6745 140.469 41.6953 140.469ZM69.8203 116V121H55.3672V116H69.8203ZM58.6484 110.25H65.3047V132.625C65.3047 133.24 65.3984 133.719 65.5859 134.062C65.7734 134.396 66.0339 134.63 66.3672 134.766C66.7109 134.901 67.1068 134.969 67.5547 134.969C67.8672 134.969 68.1797 134.943 68.4922 134.891C68.8047 134.828 69.0443 134.781 69.2109 134.75L70.2578 139.703C69.9245 139.807 69.4557 139.927 68.8516 140.063C68.2474 140.208 67.513 140.297 66.6484 140.328C65.0443 140.391 63.638 140.177 62.4297 139.687C61.2318 139.198 60.2995 138.437 59.6328 137.406C58.9661 136.375 58.638 135.073 58.6484 133.5V110.25ZM74.7969 108H83.1406L91.9531 129.5H92.3281L101.141 108H109.484V140H102.922V119.172H102.656L94.375 139.844H89.9063L81.625 119.094H81.3594V140H74.7969V108ZM121.777 140.453C120.246 140.453 118.882 140.188 117.684 139.656C116.486 139.115 115.538 138.318 114.84 137.266C114.152 136.203 113.809 134.88 113.809 133.297C113.809 131.964 114.053 130.844 114.543 129.937C115.033 129.031 115.699 128.302 116.543 127.75C117.387 127.198 118.345 126.781 119.418 126.5C120.501 126.219 121.637 126.021 122.824 125.906C124.22 125.76 125.345 125.625 126.199 125.5C127.053 125.365 127.673 125.167 128.059 124.906C128.444 124.646 128.637 124.26 128.637 123.75V123.656C128.637 122.667 128.324 121.901 127.699 121.359C127.085 120.818 126.21 120.547 125.074 120.547C123.876 120.547 122.923 120.812 122.215 121.344C121.507 121.865 121.038 122.521 120.809 123.312L114.652 122.812C114.965 121.354 115.579 120.094 116.496 119.031C117.413 117.958 118.595 117.135 120.043 116.562C121.501 115.979 123.189 115.688 125.105 115.688C126.439 115.688 127.715 115.844 128.934 116.156C130.163 116.469 131.251 116.953 132.199 117.609C133.158 118.266 133.913 119.109 134.465 120.141C135.017 121.161 135.293 122.385 135.293 123.812V140H128.98V136.672H128.793C128.408 137.422 127.892 138.083 127.246 138.656C126.6 139.219 125.824 139.661 124.918 139.984C124.012 140.297 122.965 140.453 121.777 140.453ZM123.684 135.859C124.663 135.859 125.527 135.667 126.277 135.281C127.027 134.885 127.616 134.354 128.043 133.688C128.47 133.021 128.684 132.266 128.684 131.422V128.875C128.475 129.01 128.189 129.135 127.824 129.25C127.47 129.354 127.069 129.453 126.621 129.547C126.173 129.63 125.725 129.708 125.277 129.781C124.829 129.844 124.423 129.901 124.059 129.953C123.277 130.068 122.595 130.25 122.012 130.5C121.428 130.75 120.975 131.089 120.652 131.516C120.329 131.932 120.168 132.453 120.168 133.078C120.168 133.984 120.496 134.677 121.152 135.156C121.819 135.625 122.663 135.859 123.684 135.859ZM153.223 116V121H138.77V116H153.223ZM142.051 110.25H148.707V132.625C148.707 133.24 148.801 133.719 148.988 134.062C149.176 134.396 149.436 134.63 149.77 134.766C150.113 134.901 150.509 134.969 150.957 134.969C151.27 134.969 151.582 134.943 151.895 134.891C152.207 134.828 152.447 134.781 152.613 134.75L153.66 139.703C153.327 139.807 152.858 139.927 152.254 140.063C151.65 140.208 150.915 140.297 150.051 140.328C148.447 140.391 147.04 140.177 145.832 139.687C144.634 139.198 143.702 138.437 143.035 137.406C142.368 136.375 142.04 135.073 142.051 133.5V110.25ZM168.238 140.469C165.77 140.469 163.645 139.969 161.863 138.969C160.092 137.958 158.728 136.531 157.77 134.687C156.811 132.833 156.332 130.641 156.332 128.109C156.332 125.641 156.811 123.474 157.77 121.609C158.728 119.745 160.077 118.292 161.816 117.25C163.566 116.208 165.618 115.688 167.973 115.688C169.556 115.688 171.03 115.943 172.395 116.453C173.77 116.953 174.967 117.708 175.988 118.719C177.02 119.729 177.822 121 178.395 122.531C178.967 124.052 179.254 125.833 179.254 127.875V129.703H158.988V125.578H172.988C172.988 124.62 172.78 123.771 172.363 123.031C171.947 122.292 171.368 121.714 170.629 121.297C169.9 120.87 169.051 120.656 168.082 120.656C167.072 120.656 166.176 120.891 165.395 121.359C164.624 121.818 164.02 122.437 163.582 123.219C163.145 123.99 162.921 124.849 162.91 125.797V129.719C162.91 130.906 163.129 131.932 163.566 132.797C164.014 133.661 164.645 134.328 165.457 134.797C166.27 135.266 167.233 135.5 168.348 135.5C169.087 135.5 169.764 135.396 170.379 135.188C170.993 134.979 171.52 134.667 171.957 134.25C172.395 133.833 172.728 133.323 172.957 132.719L179.113 133.125C178.801 134.604 178.16 135.896 177.191 137C176.233 138.094 174.993 138.948 173.473 139.563C171.962 140.167 170.217 140.469 168.238 140.469Z" fill="white"/>
<path d="M54.6243 51.6331C44.8379 64.0544 53.056 76.988 58.3884 81.9022C65.4146 73.6213 67.5893 66.7415 67.7985 64.3367C69.0531 55.0521 75.5356 51.5808 78.6201 51.0058C89.1593 48.7474 94.3035 51.9468 95.5582 53.8288C96.6874 55.5853 105.125 55.9199 109.203 55.8676C112.465 57.3733 110.562 64.023 109.203 67.1597C107.634 69.8259 101.518 72.649 97.2834 72.8058C93.8957 72.9313 93.1534 75.472 93.2057 76.7267C93.9585 89.2734 99.5836 96.5924 102.302 98.6835C108.701 93.2884 113.856 79.7065 115.633 73.59C124.416 43.1013 109.569 31.0878 101.047 28.8921C82.9801 25.5045 78.5678 41.282 78.6201 49.5943C64.8186 42.9445 56.8723 48.1827 54.6243 51.6331Z" fill="white"/>
<path d="M72.6606 65.1209C72.1587 59.4748 73.8107 57.0177 74.6994 56.495C76.7383 57.5928 76.4246 58.0633 79.2476 61.2C82.0706 60.5727 84.2663 60.8863 85.521 61.2C86.7757 61.5137 88.344 64.6504 88.9714 64.6504C89.5987 64.6504 92.1081 65.5914 93.2059 67.1597C94.3037 68.7281 91.9512 72.1784 91.6376 73.2763C91.3239 74.3741 88.344 75.3151 86.6189 75.9425L86.5947 75.9512C84.869 76.5786 82.2428 77.5334 85.521 82.3727C88.344 85.823 88.5009 91.1031 88.344 93.0374C82.0706 92.4624 68.2692 90.2144 63.2505 85.823C66.3872 82.8118 67.485 79.0269 67.6419 77.5108C69.5239 69.2299 71.7718 65.8005 72.6606 65.1209Z" fill="#FEE05C"/>
<path d="M28.433 60.259C34.0791 70.4219 41.4503 69.1986 44.4301 67.3165C46.5735 65.8528 49.888 60.6981 45.9985 51.7899C42.109 42.8817 34.8632 42.223 31.7265 43.0072C28.2762 44.5232 22.787 50.0961 28.433 60.259Z" fill="#FEE05C"/>
<path d="M42.2345 38.9295C34.2045 28.6411 38.1568 20.0048 41.1366 16.9726C42.0645 15.8748 48.351 12.1108 55.8791 19.9525C62.7798 27.1669 62.2047 35.9496 60.8978 38.9295C58.6498 42.7981 51.77 48.2141 42.2345 38.9295Z" fill="#FEE05C"/>
<path d="M62.1524 18.541C67.7984 31.4641 77.2608 30.7218 81.2862 28.7352C86.9322 24.8144 87.4027 15.5611 80.6589 7.40571C75.2637 0.881389 69.6282 -0.226909 67.4847 0.034482C66.5437 0.034482 55.0948 2.387 62.1524 18.541Z" fill="#FEE05C"/>
<path d="M91.7941 16.3453C94.8053 24.1243 102.041 26.2781 105.282 26.3827C107.216 26.8009 111.367 26.3827 112.496 21.364C113.908 15.0906 110.144 7.40571 105.909 4.73952C101.675 2.07333 98.8517 0.975488 95.5582 1.75966C92.2646 2.54383 88.0301 6.62153 91.7941 16.3453Z" fill="#FEE05C"/>
<path d="M61.6818 17.9136C67.0447 32.5057 77.8358 30.6695 81.7566 28.2647C89.2847 18.3527 81.443 7.71935 76.5811 3.64166C69.8372 -2.94537 54.9379 -0.436024 61.6818 17.9136Z" fill="#FEE05C"/>
<path d="M99.0085 24.3439C85.8343 13.6791 90.278 5.26231 94.1466 2.38701C101.204 -0.592849 114.065 7.24888 113.124 19.3252C112.371 28.9862 103.4 26.6964 99.0085 24.3439Z" fill="#FEE05C"/>
</svg>
